<svg width="426" height="1029" viewBox="0 0 426 1029" fill="none" xmlns="http://www.w3.org/2000/svg">
<g style="mix-blend-mode:overlay">
<rect x="-83.5161" y="205.798" width="143.172" height="147.872" transform="rotate(45 -83.5161 205.798)" fill="#B7B7B7"/>
<rect x="17.722" y="307.039" width="143.172" height="147.872" transform="rotate(45 17.722 307.039)" fill="#C4C4C4"/>
<rect x="118.961" y="408.277" width="143.172" height="147.872" transform="rotate(45 118.961 408.277)" fill="#E2E2E2"/>
<rect x="21.0465" y="101.236" width="143.172" height="147.872" transform="rotate(45 21.0465 101.236)" fill="#E2E2E2"/>
<rect x="122.285" y="202.478" width="143.172" height="147.872" transform="rotate(45 122.285 202.478)" fill="#848484"/>
<rect x="223.522" y="303.714" width="143.172" height="147.872" transform="rotate(45 223.522 303.714)" fill="#8D8D8D"/>
<rect x="220.198" y="509.517" width="143.172" height="147.872" transform="rotate(45 220.198 509.517)" fill="#B7B7B7"/>
<rect x="-86.8383" y="411.599" width="143.172" height="147.872" transform="rotate(45 -86.8383 411.599)" fill="#E2E2E2"/>
<rect x="14.3984" y="512.839" width="143.172" height="147.872" transform="rotate(45 14.3984 512.839)" fill="#B7B7B7"/>
<rect x="115.636" y="614.076" width="143.172" height="147.872" transform="rotate(45 115.636 614.076)" fill="#8D8D8D"/>
<rect x="-90.162" y="617.399" width="143.172" height="147.872" transform="rotate(45 -90.162 617.399)" fill="#C4C4C4"/>
<rect x="11.0746" y="718.639" width="143.172" height="147.872" transform="rotate(45 11.0746 718.639)" fill="#B7B7B7"/>
</g>
</svg>
