<svg width="724" height="784" viewBox="0 0 724 784" fill="none" xmlns="http://www.w3.org/2000/svg">
<g style="mix-blend-mode:overlay">
<rect x="418.246" y="-16.4346" width="143.172" height="147.872" transform="rotate(45 418.246 -16.4346)" fill="#8D8D8D"/>
<rect x="519.485" y="84.7998" width="143.172" height="147.872" transform="rotate(45 519.485 84.7998)" fill="#B4ABBB"/>
<rect x="620.722" y="186.04" width="143.172" height="147.872" transform="rotate(45 620.722 186.04)" fill="#C4C4C4"/>
<rect x="721.961" y="287.277" width="143.172" height="147.872" transform="rotate(45 721.961 287.277)" fill="#E2E2E2"/>
<rect x="624.048" y="-19.7622" width="143.172" height="147.872" transform="rotate(45 624.048 -19.7622)" fill="#E2E2E2"/>
<rect x="725.285" y="81.4775" width="143.172" height="147.872" transform="rotate(45 725.285 81.4775)" fill="#848484"/>
<rect x="826.522" y="182.714" width="143.172" height="147.872" transform="rotate(45 826.522 182.714)" fill="#8D8D8D"/>
<rect x="823.198" y="388.517" width="143.172" height="147.872" transform="rotate(45 823.198 388.517)" fill="#B4ABBB"/>
<rect x="313.686" y="88.1255" width="143.172" height="147.872" transform="rotate(45 313.686 88.1255)" fill="#C4C4C4"/>
<rect x="414.924" y="189.363" width="143.172" height="147.872" transform="rotate(45 414.924 189.363)" fill="#848484"/>
<rect x="516.162" y="290.6" width="143.172" height="147.872" transform="rotate(45 516.162 290.6)" fill="#E2E2E2"/>
<rect x="617.398" y="391.839" width="143.172" height="147.872" transform="rotate(45 617.398 391.839)" fill="#B4ABBB"/>
<rect x="718.636" y="493.076" width="143.172" height="147.872" transform="rotate(45 718.636 493.076)" fill="#8D8D8D"/>
<rect x="209.123" y="192.687" width="143.172" height="147.872" transform="rotate(45 209.123 192.687)" fill="#E2E2E2"/>
<rect x="310.361" y="293.924" width="143.172" height="147.872" transform="rotate(45 310.361 293.924)" fill="#B4ABBB"/>
<rect x="411.6" y="395.163" width="143.172" height="147.872" transform="rotate(45 411.6 395.163)" fill="#848484"/>
<rect x="512.838" y="496.399" width="143.172" height="147.872" transform="rotate(45 512.838 496.399)" fill="#C4C4C4"/>
<rect x="205.801" y="398.484" width="143.172" height="147.872" transform="rotate(45 205.801 398.484)" fill="#8D8D8D"/>
<rect x="307.038" y="499.724" width="143.172" height="147.872" transform="rotate(45 307.038 499.724)" fill="#B4ABBB"/>
<rect x="408.276" y="600.961" width="143.172" height="147.872" transform="rotate(45 408.276 600.961)" fill="#E2E2E2"/>
<rect x="614.075" y="597.639" width="143.172" height="147.872" transform="rotate(45 614.075 597.639)" fill="#B4ABBB"/>
</g>
</svg>
