<svg xmlns="http://www.w3.org/2000/svg" fill="none" viewBox="0 0 125 28">
  <path fill="#F4F4F3" d="M1.72 20.765V4.892h5.797c1.03 0 1.874.118 2.536.353.676.235 1.205.558 1.587.97.397.411.669.889.816 1.433.161.529.242 1.087.242 1.675 0 .882-.184 1.61-.551 2.183a3.988 3.988 0 0 1-1.389 1.366 6.199 6.199 0 0 1-1.962.684c-.72.132-1.448.198-2.182.198H3.219v7.01h-1.5Zm4.938-8.29c.705 0 1.337-.043 1.896-.132.558-.088 1.028-.25 1.41-.485.397-.25.699-.58.904-.992.22-.426.331-.977.331-1.653 0-1-.33-1.756-.992-2.27-.647-.515-1.683-.772-3.108-.772h-3.88v6.305h3.439Zm17.776 1.786c0-.558-.081-1.08-.243-1.565a3.345 3.345 0 0 0-.683-1.279 2.99 2.99 0 0 0-1.125-.86c-.455-.22-.977-.33-1.565-.33s-1.11.11-1.565.33c-.441.221-.823.515-1.146.882a4.58 4.58 0 0 0-.75 1.28c-.191.484-.316.998-.375 1.542h7.452Zm-7.452 1.103c0 .617.081 1.205.243 1.763.161.544.396 1.022.705 1.433.323.397.728.72 1.213.97.485.235 1.043.353 1.675.353.867 0 1.61-.228 2.227-.684.617-.455 1.028-1.102 1.234-1.94h1.477a7.386 7.386 0 0 1-.639 1.522c-.265.455-.595.86-.992 1.212a4.4 4.4 0 0 1-1.411.794c-.544.19-1.176.286-1.896.286-.911 0-1.697-.154-2.359-.463a4.5 4.5 0 0 1-1.631-1.256 5.475 5.475 0 0 1-.948-1.896 8.717 8.717 0 0 1-.309-2.359c0-.838.118-1.624.353-2.359a6.163 6.163 0 0 1 1.036-1.918 4.75 4.75 0 0 1 1.654-1.3c.646-.324 1.381-.486 2.204-.486 1.573 0 2.807.544 3.704 1.632.896 1.073 1.337 2.638 1.323 4.696h-8.863Zm13.925 5.4h-1.322V9.346h1.322v2.138h.045c.367-.91.837-1.543 1.41-1.895.588-.368 1.36-.552 2.315-.552v1.433c-.75-.014-1.367.103-1.852.353-.485.25-.874.588-1.168 1.014-.28.426-.478.934-.595 1.521a10.23 10.23 0 0 0-.155 1.808v5.6Zm37.036-6.503c0-.558-.08-1.08-.242-1.565a3.342 3.342 0 0 0-.684-1.279 2.989 2.989 0 0 0-1.124-.86c-.456-.22-.977-.33-1.565-.33s-1.11.11-1.566.33c-.44.221-.823.515-1.146.882a4.58 4.58 0 0 0-.75 1.28c-.19.484-.315.998-.374 1.542h7.451Zm-7.451 1.103c0 .617.08 1.205.242 1.763.162.544.397 1.022.706 1.433.323.397.727.72 1.212.97.485.235 1.044.353 1.676.353.867 0 1.609-.228 2.226-.684.617-.455 1.03-1.102 1.235-1.94h1.477a7.38 7.38 0 0 1-.64 1.522c-.264.455-.595.86-.992 1.212a4.4 4.4 0 0 1-1.41.794c-.544.19-1.176.286-1.896.286-.912 0-1.698-.154-2.36-.463a4.5 4.5 0 0 1-1.63-1.256 5.475 5.475 0 0 1-.949-1.896 8.717 8.717 0 0 1-.308-2.359c0-.838.117-1.624.353-2.359a6.16 6.16 0 0 1 1.036-1.918 4.75 4.75 0 0 1 1.653-1.3c.647-.324 1.382-.486 2.205-.486 1.572 0 2.807.544 3.703 1.632.897 1.073 1.338 2.638 1.323 4.696h-8.862Zm14.013-.265c0 .647.088 1.264.265 1.852.176.573.426 1.08.75 1.52.337.427.742.773 1.212 1.037a3.51 3.51 0 0 0 1.631.375c.676 0 1.264-.132 1.764-.397.514-.28.933-.654 1.256-1.124.324-.47.559-1.014.706-1.632a7.566 7.566 0 0 0 .176-2.028c0-.72-.103-1.352-.308-1.896a3.917 3.917 0 0 0-.816-1.41 3.41 3.41 0 0 0-1.235-.86 3.807 3.807 0 0 0-1.543-.31c-.617 0-1.168.126-1.653.376-.485.25-.89.595-1.213 1.036-.323.426-.573.94-.75 1.543a7.213 7.213 0 0 0-.242 1.918Zm0 10.163h-1.322V9.345h1.322v2.006h.044a4.01 4.01 0 0 1 .728-.992c.308-.294.64-.536.992-.727a5.574 5.574 0 0 1 1.124-.441 4.313 4.313 0 0 1 1.124-.155c.926 0 1.713.155 2.36.463a4.25 4.25 0 0 1 1.587 1.28c.426.528.734 1.16.926 1.895.19.735.286 1.521.286 2.359 0 .793-.103 1.558-.308 2.293a5.69 5.69 0 0 1-.948 1.94c-.412.543-.941.984-1.588 1.322-.632.324-1.381.485-2.248.485a5.427 5.427 0 0 1-2.337-.529 4.18 4.18 0 0 1-1.742-1.61v6.328Zm17.115-4.453c-.162.03-.375.08-.64.154-.264.073-.558.11-.881.11-.662 0-1.169-.161-1.522-.485-.338-.338-.507-.933-.507-1.785v-8.356h-1.609V9.345h1.61V6.171h1.322v3.174h2.139v1.102h-2.139v7.826c0 .28.007.522.022.728.015.206.059.375.132.507a.635.635 0 0 0 .331.287c.162.058.382.088.662.088.176 0 .352-.015.529-.044.19-.03.374-.066.55-.11v1.08Zm3.036-.044V9.345h1.323v11.42h-1.323ZM94.59 6.854V4.892h1.455v1.962H94.59Zm10.399 14.22a6.046 6.046 0 0 1-2.073-.398 4.744 4.744 0 0 1-1.675-1.124c-.47-.5-.845-1.124-1.124-1.874-.28-.75-.42-1.624-.42-2.623 0-.838.11-1.617.331-2.337a5.538 5.538 0 0 1 .992-1.918c.441-.544.992-.97 1.654-1.279.661-.323 1.433-.485 2.315-.485.896 0 1.675.162 2.336.485a4.595 4.595 0 0 1 1.654 1.28c.441.528.764 1.16.97 1.895.22.735.33 1.521.33 2.359 0 .911-.124 1.734-.374 2.469a5.455 5.455 0 0 1-1.081 1.896 4.69 4.69 0 0 1-1.675 1.234c-.647.28-1.367.42-2.16.42Zm3.88-6.02c0-.675-.074-1.307-.221-1.895a4.384 4.384 0 0 0-.683-1.521 3.248 3.248 0 0 0-1.191-1.036c-.485-.25-1.08-.375-1.785-.375-.691 0-1.286.14-1.786.419a3.366 3.366 0 0 0-1.191 1.08c-.308.44-.536.955-.683 1.543a7.16 7.16 0 0 0-.22 1.786c0 .705.08 1.36.242 1.962.176.588.426 1.095.75 1.521.323.426.727.757 1.212.992s1.044.353 1.676.353c.69 0 1.278-.132 1.763-.397.5-.28.904-.647 1.213-1.102.308-.456.536-.97.683-1.543a7.16 7.16 0 0 0 .221-1.786Zm6.253 5.71h-1.323V9.346h1.323v1.587a8.58 8.58 0 0 1 1.631-1.366c.574-.353 1.257-.53 2.051-.53.705 0 1.359.125 1.962.375.602.235 1.109.654 1.521 1.257.279.411.441.838.485 1.279.059.426.088.874.088 1.344v7.474h-1.323v-7.452c0-1.029-.228-1.8-.683-2.315-.456-.514-1.213-.771-2.271-.771-.411 0-.786.066-1.124.198-.338.118-.647.28-.926.485a3.437 3.437 0 0 0-.683.706 3.28 3.28 0 0 0-.441.838c-.133.367-.213.72-.243 1.058-.029.338-.044.705-.044 1.102v6.15Z"/>
  <path fill="url(#a)" d="M40.971 5.178V9.87l5.798 5.891V11.08L40.97 5.178Z"/>
  <path fill="url(#b)" d="M39.039 15.562v4.692L43 22.64v-4.682l-3.961-2.396Z"/>
  <path fill="url(#c)" d="M43 17.958v4.681l7.7 4.594v.003l2.006-1.195-5.771-5.747 7.66-4.565v-4.76L43 17.958Z"/>
  <path fill="#5B5B5B" fill-opacity=".2" d="M43 17.958v4.681l7.7 4.594v.003l2.006-1.195-5.771-5.747 7.66-4.565v-4.76L43 17.958Z" style="mix-blend-mode:multiply"/>
  <path fill="url(#d)" fill-rule="evenodd" d="M50.633 8.572 43 3.98l-2.029 1.198 5.65 5.813-7.582 4.57L43 17.959l11.595-6.99-3.962-2.396Z" clip-rule="evenodd"/>
  <path fill="url(#e)" d="m52.705 26.042-1.792-8.155-4.031 2.403 5.823 5.752Z"/>
  <defs>
    <linearGradient id="b" x1="42.227" x2="40.372" y1="9.072" y2="24.034" gradientUnits="userSpaceOnUse">
      <stop offset=".083" stop-color="#20AAEA"/>
      <stop offset="1" stop-color="#7520B9"/>
    </linearGradient>
    <linearGradient id="c" x1="31.212" x2="53.135" y1="17.259" y2="22.703" gradientUnits="userSpaceOnUse">
      <stop offset=".471" stop-color="#20AAEA"/>
      <stop offset=".799" stop-color="#B366FF"/>
      <stop offset="1" stop-color="#FF80A1"/>
    </linearGradient>
    <linearGradient id="d" x1="60.585" x2="41.243" y1="-7.402" y2="17.749" gradientUnits="userSpaceOnUse">
      <stop offset=".532" stop-color="#FF80A1"/>
      <stop offset=".784" stop-color="#B37DE8"/>
      <stop offset="1" stop-color="#20AAEA"/>
    </linearGradient>
    <linearGradient id="e" x1="40.198" x2="58.614" y1="13.165" y2="23.708" gradientUnits="userSpaceOnUse">
      <stop offset=".404" stop-color="#7520B9"/>
      <stop offset=".885" stop-color="#20AAEA"/>
    </linearGradient>
    <radialGradient id="a" cx="0" cy="0" r="1" gradientTransform="rotate(31.17 5.277 67.235) scale(23.1489 20.2621)" gradientUnits="userSpaceOnUse">
      <stop offset=".051" stop-color="#20AAEA"/>
      <stop offset=".575" stop-color="#7520B9"/>
    </radialGradient>
  </defs>
</svg>
