<svg xmlns="http://www.w3.org/2000/svg" fill="none" viewBox="0 0 694 403">
  <ellipse fill="#FC91AD" rx="22.273" ry="22.515" transform="matrix(-.31152 -.9173 .98987 -.28346 43.28 43.52)"/>
  <path fill="#20AAEA" d="m581.105 21.43 190.003 101.018-22.898 36.175L558.207 57.605zM430.328 232.374l81.91 98.781-98.749 68.891-81.91-98.781z"/>
  <path fill="#4DBBEE" d="m139.568 149.779-71.78 63.137 66.177 4.548 5.603-67.685Z"/>
  <rect width="32.958" height="563.774" fill="#FC91AD" rx="16" transform="matrix(.53483 -.84496 .88297 .46943 132.436 41.748)"/>
  <path fill="#AA62E3" d="M312.269 209.649c-4.885.94-8.1 5.687-6.769 10.497.833 3.007 1.79 6.005 2.874 8.989 22.317 61.415 90.038 93.263 151.259 71.135 61.221-22.127 92.759-89.852 70.443-151.267-22.317-61.415-90.038-93.263-151.259-71.136a119.01 119.01 0 0 0-8.709 3.542c-4.528 2.054-6.095 7.577-3.683 11.948l2.708 4.91c2.407 4.363 7.868 5.919 12.426 3.954a95.277 95.277 0 0 1 5.34-2.113c48.976-17.703 103.153 7.776 121.006 56.908 17.854 49.132-7.377 103.312-56.354 121.014-48.977 17.702-103.153-7.777-121.007-56.908a97.541 97.541 0 0 1-1.806-5.475c-1.419-4.776-6.106-7.992-10.983-7.054l-5.486 1.056Z"/>
</svg>
