<svg width="753" height="900" viewBox="0 0 753 900" fill="none" xmlns="http://www.w3.org/2000/svg">
<rect x="151.904" y="0.289429" width="74.9518" height="74.6624" fill="#AA62E3"/>
<path d="M226.567 75.2412L151.904 0V75.2412H226.567Z" fill="#FC91AD"/>
<rect x="226.855" y="0.289429" width="74.9518" height="74.6624" fill="#AA62E3"/>
<path d="M301.518 75.2412L226.856 0V75.2412H301.518Z" fill="#FC91AD"/>
<rect x="151.903" y="75.2412" width="74.9518" height="74.6624" fill="#AA62E3"/>
<path d="M226.566 150.193L151.904 74.9518V150.193H226.566Z" fill="#FC91AD"/>
<rect x="226.855" y="75.2412" width="74.9518" height="74.6624" fill="#AA62E3"/>
<path d="M301.518 150.193L226.856 74.9518V150.193H301.518Z" fill="#FC91AD"/>
<rect x="2" y="0.289429" width="149.904" height="149.904" fill="#20AAEA"/>
<rect x="451.421" y="299.518" width="298.65" height="149.904" fill="#20AAEA"/>
<rect x="301.807" y="0.289429" width="149.904" height="149.904" fill="#000F46"/>
<rect x="151.903" y="150.193" width="149.904" height="149.904" fill="#000F46"/>
<rect x="2" y="150.193" width="149.904" height="149.904" fill="#000F46"/>
<path d="M2 223.553L132.225 157.265L132.225 289.842L2 223.553Z" fill="#FBFAFF"/>
<path d="M301.518 227.894L171.293 161.605L171.292 294.182L301.518 227.894Z" fill="#FBFAFF"/>
<circle cx="151.759" cy="225" r="73.6495" fill="#AA62E3"/>
<circle cx="151.759" cy="223.553" r="36.6077" fill="#FBFAFF"/>
<rect x="301.807" y="150.193" width="149.904" height="149.904" fill="#FC91AD"/>
<rect x="324.09" y="150.193" width="25.1768" height="149.904" fill="#20AAEA"/>
<rect x="375.312" y="150.193" width="25.1768" height="149.904" fill="#20AAEA"/>
<rect x="426.534" y="150.193" width="25.1768" height="149.904" fill="#20AAEA"/>
<rect x="451.71" y="0.289429" width="298.36" height="299.807" fill="#AA62E3"/>
<path d="M452.289 256.688C452.289 256.688 707.53 256.688 707.53 0.289429" stroke="white" stroke-width="90"/>
<rect x="2" y="300.096" width="150.482" height="150.482" fill="#FC91AD"/>
<rect x="151.325" y="300.096" width="150.482" height="150.482" fill="white"/>
<path d="M300.65 450.579L149.878 299.807V450.579H300.65Z" fill="#20AAEA"/>
<rect x="301.518" y="299.807" width="150.482" height="150.482" fill="#AA62E3"/>
<circle cx="376.759" cy="374.759" r="74.6624" fill="#FC91AD"/>
<circle cx="376.324" cy="375.193" r="33.135" fill="#000F46"/>
<rect x="452" y="316.302" width="298.071" height="18.5209" fill="#000F46"/>
<rect x="452.29" y="349.871" width="298.071" height="18.5209" fill="#000F46"/>
<rect x="452" y="383.151" width="298.071" height="18.5209" fill="#000F46"/>
<rect x="452" y="416.72" width="298.071" height="18.5209" fill="#000F46"/>
<rect width="74.9518" height="74.6624" transform="matrix(-1 0 0 1 601.035 449.711)" fill="#AA62E3"/>
<path d="M526.373 524.662L601.036 449.421V524.662H526.373Z" fill="#FC91AD"/>
<rect width="74.9518" height="74.6624" transform="matrix(-1 0 0 1 526.083 449.711)" fill="#AA62E3"/>
<path d="M451.422 524.662L526.084 449.421V524.662H451.422Z" fill="#FC91AD"/>
<rect width="74.9518" height="74.6624" transform="matrix(-1 0 0 1 601.036 524.662)" fill="#AA62E3"/>
<path d="M526.373 599.614L601.035 524.373V599.614H526.373Z" fill="#FC91AD"/>
<rect width="74.9518" height="74.6624" transform="matrix(-1 0 0 1 526.083 524.662)" fill="#AA62E3"/>
<path d="M451.422 599.614L526.084 524.373V599.614H451.422Z" fill="#FC91AD"/>
<rect width="149.904" height="149.904" transform="matrix(-1 0 0 1 750.939 449.711)" fill="white"/>
<rect width="298.65" height="149.904" transform="matrix(-1 0 0 1 301.518 748.939)" fill="#20AAEA"/>
<rect width="149.904" height="149.904" transform="matrix(-1 0 0 1 451.132 449.711)" fill="#000F46"/>
<rect width="149.904" height="149.904" transform="matrix(-1 0 0 1 601.036 599.614)" fill="#000F46"/>
<rect width="149.904" height="149.904" transform="matrix(-1 0 0 1 750.939 599.614)" fill="#000F46"/>
<path d="M750.939 672.974L620.714 606.686L620.714 739.263L750.939 672.974Z" fill="#FBFAFF"/>
<path d="M451.421 677.315L581.646 611.027L581.646 743.604L451.421 677.315Z" fill="#FBFAFF"/>
<circle r="73.6495" transform="matrix(-1 0 0 1 601.18 674.421)" fill="#AA62E3"/>
<circle r="36.6077" transform="matrix(-1 0 0 1 601.18 672.974)" fill="#FBFAFF"/>
<rect width="149.904" height="149.904" transform="matrix(-1 0 0 1 451.132 599.614)" fill="#FC91AD"/>
<rect width="25.1768" height="149.904" transform="matrix(-1 0 0 1 428.849 599.614)" fill="#20AAEA"/>
<rect width="25.1768" height="149.904" transform="matrix(-1 0 0 1 377.626 599.614)" fill="#20AAEA"/>
<rect width="25.1768" height="149.904" transform="matrix(-1 0 0 1 326.405 599.614)" fill="#20AAEA"/>
<rect width="298.36" height="299.807" transform="matrix(-1 0 0 1 301.229 449.711)" fill="#AA62E3"/>
<path d="M300.649 706.109C300.649 706.109 45.4083 706.109 45.4083 449.711" stroke="white" stroke-width="90"/>
<rect width="150.482" height="150.482" transform="matrix(-1 0 0 1 750.939 749.518)" fill="#FC91AD"/>
<rect width="150.482" height="150.482" transform="matrix(-1 0 0 1 601.614 749.518)" fill="white"/>
<path d="M452.289 900L603.061 749.228V900H452.289Z" fill="#20AAEA"/>
<rect width="150.482" height="150.482" transform="matrix(-1 0 0 1 451.421 749.228)" fill="#AA62E3"/>
<circle r="74.6624" transform="matrix(-1 0 0 1 376.18 824.18)" fill="#FC91AD"/>
<circle r="33.135" transform="matrix(-1 0 0 1 376.614 824.614)" fill="#000F46"/>
<rect width="298.071" height="18.5209" transform="matrix(-1 0 0 1 300.939 765.723)" fill="#000F46"/>
<rect width="298.071" height="18.5209" transform="matrix(-1 0 0 1 300.649 799.292)" fill="#000F46"/>
<rect width="298.071" height="18.5209" transform="matrix(-1 0 0 1 300.939 832.572)" fill="#000F46"/>
<rect width="298.071" height="18.5209" transform="matrix(-1 0 0 1 300.939 866.141)" fill="#000F46"/>
</svg>
