<svg width="583" height="684" fill="none" xmlns="http://www.w3.org/2000/svg"><path d="M275.171 469.943 241.902 578.86l71.093-37.824-37.824-71.093Z" fill="#FC91AD"/><path fill="#000F46" d="m148.151 488.638 243.678 123.254-29.048 57.429-243.678-123.254z"/><path fill="#A052DE" d="m363.214 217.081 28.445 189.005-39.22 5.903-28.446-189.005z"/><path fill="#4DBBEE" d="m559.47 448.722-6.467 61.262-47.216-4.985 6.467-61.261z"/><circle cx="502.561" cy="531.204" r="43.013" fill="#FC91AD"/><circle cx="442.604" cy="462.123" r="62.564" fill="#000F46"/><path fill-rule="evenodd" clip-rule="evenodd" d="m251.72 601.313 102.262-117.402 13.152 31.228a39.176 39.176 0 0 1 17.137-13.938 39.176 39.176 0 0 1 21.84-2.539l-13.129-31.176 155.441 8.868-102.262 117.401-14.26-33.857a39.174 39.174 0 0 1-17.076 13.851 39.178 39.178 0 0 1-21.945 2.521l14.281 33.91-155.441-8.867Z" fill="#FCFBFF"/><path fill-rule="evenodd" clip-rule="evenodd" d="M430.886 611.886c-40.305 16.975-86.738-1.938-103.713-42.243-16.974-40.304 1.938-86.738 42.243-103.712 40.304-16.975 86.738 1.938 103.713 42.242 16.974 40.305-1.939 86.739-42.243 103.713Zm-16.062-38.137c-20.033 8.437-43.113-.964-51.55-20.997-8.437-20.034.963-43.114 20.997-51.551 20.033-8.437 43.113.964 51.55 20.997 8.438 20.033-.963 43.113-20.997 51.551Z" fill="#A052DE"/><path d="m459.725 304.307-34.356-138.059-21.868 128.491 56.224 9.568Z" fill="#000F46"/><path d="m0 394.196 58.678 22.07-19.139-40.674L0 394.196Z" fill="#A052DE"/><path d="m530.448 308.32-50.904 90.896 70.9-19.996-19.996-70.9Z" fill="#FC91AD"/><path d="m318.394 166.824 26.35-55.873-39.514 11.803 13.164 44.07ZM415.305 321.525l-83.492 22.542 48.413 31.452 35.079-53.994Z" fill="#4DBBEE"/><path fill="#A052DE" d="m253.464 465.343-10.974-27.984-27.984 10.973 10.974 27.985z"/><path fill="#FC91AD" d="m444.343 125.983 11.436-14.773-14.773-11.436-11.436 14.773z"/><circle cx="148.032" cy="408.683" r="28.675" fill="#4DBBEE"/><circle cx="28.769" cy="297.241" r="14.989" fill="#000F46"/><circle cx="493.437" cy="274.431" r="11.731" fill="#4DBBEE"/><circle cx="274.463" cy="43.727" r="15.641" fill="#A052DE"/><rect x="52.883" y="16.524" width="30.532" height="500.754" rx="15.266" transform="rotate(-31.185 52.883 16.524)" fill="#FC91AD"/><path d="M98.55 205.655c-4.454-1.721-9.494.491-10.865 5.066a114.802 114.802 0 0 0-2.249 8.744c-13.183 61.108 25.668 121.333 86.776 134.516 61.108 13.183 121.333-25.668 134.516-86.776 13.183-61.108-25.668-121.333-86.776-134.516a114.762 114.762 0 0 0-8.893-1.556c-4.733-.637-8.826 3.042-9.095 7.81l-.302 5.354c-.268 4.76 3.381 8.796 8.093 9.52 1.805.278 3.614.611 5.423 1.001 48.887 10.547 79.968 58.727 69.421 107.613-10.546 48.887-58.726 79.967-107.613 69.421-48.886-10.546-79.967-58.726-69.42-107.613.39-1.809.832-3.594 1.324-5.354 1.282-4.591-.89-9.58-5.337-11.298l-5.003-1.932Z" fill="#4DBBEE"/><path d="M481.269 429.885c.567 1.25 2.046 1.81 3.247 1.148a33.07 33.07 0 0 0 2.221-1.341c14.997-9.876 19.148-30.041 9.272-45.038-9.877-14.998-30.041-19.149-45.039-9.272-14.997 9.876-19.149 30.041-9.272 45.038.48.729.984 1.432 1.51 2.109.843 1.082 2.422 1.152 3.436.228l1.14-1.037c1.012-.922 1.076-2.484.256-3.58-.315-.42-.618-.852-.911-1.296-7.901-11.998-4.58-28.13 7.418-36.031 11.998-7.902 28.129-4.581 36.031 7.417 7.901 11.998 4.58 28.13-7.418 36.031-.444.293-.894.57-1.349.832-1.187.683-1.745 2.143-1.179 3.39l.637 1.402Z" fill="#A052DE"/><path d="M162.398 617.082c-.539 1.699.4 3.526 2.136 3.932 1.085.254 2.188.467 3.309.637 23.067 3.513 44.614-12.338 48.127-35.406 3.513-23.067-12.339-44.614-35.406-48.127-23.067-3.513-44.614 12.339-48.127 35.406a42.349 42.349 0 0 0-.376 3.349c-.129 1.778 1.335 3.218 3.117 3.209l2.002-.01c1.779-.009 3.199-1.46 3.361-3.232.062-.679.145-1.361.249-2.044 2.811-18.453 20.048-31.135 38.502-28.325 18.454 2.811 31.135 20.049 28.325 38.502-2.81 18.454-20.048 31.135-38.502 28.325a34.26 34.26 0 0 1-2.025-.371c-1.74-.373-3.548.551-4.087 2.247l-.605 1.908Z" fill="#FC91AD"/></svg>