<svg xmlns="http://www.w3.org/2000/svg" fill="none" viewBox="0 0 505 515">
  <path fill="#AA62E3" d="M500.496 340.628 265.674 459.472l-24.662-48.73L475.834 291.9z"/>
  <path fill="#FC91AD" d="m145.5 228.028-149.354-4.672 72.341 77.012 77.013-72.34Z"/>
  <path fill="#20AAEA" d="M78.148 73.62 5.875 424.556l-82.706-17.033L-4.558 56.587z"/>
  <circle cx="190.965" cy="356.285" r="82.09" fill="#20AAEA" transform="rotate(74.806 190.965 356.285)"/>
  <path fill="#AA62E3" d="m143.861 198.96 31.661-23.519-23.518-31.661-31.662 23.519z"/>
  <path fill="#FC91AD" d="M75.932 28.177c.222-2.328-1.489-4.412-3.827-4.452a56.167 56.167 0 0 0-4.42.097c-30.559 1.873-53.812 28.163-51.94 58.72 1.874 30.559 28.164 53.812 58.722 51.939 30.558-1.873 53.811-28.163 51.938-58.72a56.152 56.152 0 0 0-.443-4.4c-.326-2.316-2.603-3.76-4.887-3.255l-2.564.567c-2.28.503-3.7 2.758-3.418 5.076.109.888.191 1.785.246 2.69 1.499 24.446-17.104 45.478-41.55 46.976-24.447 1.499-45.479-17.104-46.977-41.55-1.499-24.447 17.104-45.479 41.55-46.977a45.085 45.085 0 0 1 2.7-.085c2.335-.003 4.4-1.688 4.62-4.012l.25-2.614Z"/>
</svg>
