<svg xmlns="http://www.w3.org/2000/svg" fill="none" viewBox="0 0 97 125">
  <path fill="#fff" d="M39.166 111.989a4 4 0 0 0 0 8v-8ZM4.89 87.813a4 4 0 1 0 8 0h-8ZM89 30.495v75.494h8V30.495h-8Zm-15.897-6H83v-8h-9.897v8Zm-54.213 0h9.238v-8H18.89v8ZM83 111.989H39.166v8H83v-8ZM12.89 87.813V30.495h-8v57.318h8ZM89 105.99a6 6 0 0 1-6 6v8c7.732 0 14-6.268 14-14h-8Zm8-75.494c0-7.732-6.268-14-14-14v8a6 6 0 0 1 6 6h8Zm-78.11-14c-7.732 0-14 6.268-14 14h8a6 6 0 0 1 6-6v-8Z"/>
  <path stroke="#fff" stroke-linecap="round" stroke-width="8" d="M22.582 87.34v32.989M42.143 103.835H4M27.473 26.176V21.19a5 5 0 0 1 5-5h8.3a2 2 0 0 0 2-2V11a7 7 0 0 1 7-7h1.15a7 7 0 0 1 7 7v3.19a2 2 0 0 0 2 2h9.495a5 5 0 0 1 5 5v4.986a3 3 0 0 1-3 3H30.472a3 3 0 0 1-3-3Z"/>
</svg>
