<svg xmlns="http://www.w3.org/2000/svg" fill="none" viewBox="0 0 1046 1043">
  <path fill="#A052DE" d="M772.079 631.607 92.648 1375.549l-92.64-84.607L679.439 547z"/>
  <path fill="#20AAEA" d="m981.672 552.308-585.193 820.138-42.476-30.308L939.196 522z"/>
  <path fill="#FC91AD" d="M1163.46 25.097 408.565 692.338l-51.67-58.458L1111.79-33.36z"/>
  <path fill="#20AAEA" d="M1310.57-419.772 668.776 258.124 553.403 148.896 1195.198-529z"/>
  <path fill="#FC91AD" d="m995.812-583.321-610.47 801.5-36.34-27.678L959.472-611z"/>
  <path fill="#7520B9" d="M1014.11 691.732 834.835 1612.22l-44.838-8.733L969.27 682.999zM785.382 397l19.061 52.088 13.383-41.668L785.382 397Z"/>
  <path fill="#FC91AD" d="m434.959 733.985-10.974-27.984-27.984 10.973 10.974 27.985z"/>
  <circle cx="523.221" cy="158.889" r="8.5" fill="#20AAEA" transform="rotate(-5.095 523.221 158.889)"/>
  <path fill="#20AAEA" d="m736.07 982.995 50.926-66.573-67.236 36.655 16.31 29.918Z"/>
  <path fill="#FC91AD" d="m445.453 224.607 29.806 3.894 3.893-29.806-29.805-3.894z"/>
  <circle cx="1005.01" cy="960.945" r="8.5" fill="#7520B9" transform="rotate(120.024 1005.01 960.945)"/>
</svg>
