<svg width="761" height="1087" fill="none" xmlns="http://www.w3.org/2000/svg">
<path d="m428.404 704.966-41.045 184.582 112.813-71.768-71.768-112.814Z" fill="#FC91AD"/>
<path fill="#000F46" d="m220.545 752.271 419.252 172.648-31.062 75.43-419.252-172.647z"/>
<path fill="#A052DE" d="m541.581 275.045 71.43 309.212-46.947 10.845-71.43-309.212z"/>
<circle cx="812.709" cy="777.089" r="71.417" transform="rotate(-4.449 812.709 777.089)" fill="#FC91AD"/>
<circle cx="704.56" cy="670.456" r="103.88" transform="rotate(-4.449 704.56 670.456)" fill="#000F46"/>
<path fill-rule="evenodd" clip-rule="evenodd" d="m406.502 925.452 154.162-207.514 25.793 50c6.046-10.443 15.053-19.337 26.573-25.279 11.465-5.915 23.867-8.107 35.827-7.017l-25.749-49.916 258.456-5.34-154.162 207.513-27.965-54.21c-6.045 10.378-15.021 19.214-26.485 25.128-11.52 5.943-23.988 8.127-36.002 7l28.008 54.294-258.456 5.341Z" fill="#FCFBFF"/>
<path fill-rule="evenodd" clip-rule="evenodd" d="M704.451 919.88c-64.533 33.29-143.834 7.963-177.124-56.57-33.29-64.533-7.962-143.834 56.57-177.124 64.533-33.29 143.834-7.963 177.124 56.57 33.29 64.533 7.963 143.834-56.57 177.124Zm-31.499-61.063c-32.076 16.547-71.493 3.958-88.04-28.119-16.547-32.076-3.958-71.493 28.118-88.039 32.076-16.547 71.493-3.958 88.04 28.118 16.547 32.076 3.958 71.493-28.118 88.04Z" fill="#A052DE"/>
<path d="m712.577 407.008-50.238-150.82-13.224 145.033 63.462 5.787Z" fill="#000F46"/>
<path d="m830.167 404.541-72.559 157.023 114.791-42.232-42.232-114.791Z" fill="#FC91AD"/>
<path d="m641.263 441.23-135.307 48.068 84.191 45.831 51.116-93.899Z" fill="#4DBBEE"/>
<path fill="#A052DE" d="m391.879 700.146-21.77-44.912-44.912 21.77 21.77 44.912z"/>
<path fill="#FC91AD" d="m664.146 113.795 17.028-25.928-25.928-17.029-17.028 25.929z"/>
<circle cx="210.05" cy="648.932" r="47.611" transform="rotate(-4.449 210.05 648.932)" fill="#4DBBEE"/>
<circle cx="764.535" cy="353.209" r="19.477" transform="rotate(-4.449 764.535 353.209)" fill="#4DBBEE"/>
<circle cx="372.338" cy="-.491" r="25.97" transform="rotate(-4.449 372.338 -.49)" fill="#A052DE"/>
<rect x="2.036" y="-16.984" width="50.695" height="831.44" rx="16" transform="rotate(-35.633 2.036 -16.984)" fill="#FC91AD"/>
<path d="M263.246 1050.15c-.779 3.16 1.127 6.31 4.308 6.75 1.988.28 4.005.49 6.048.61 42.055 2.55 79.145-29.63 82.842-71.878 3.697-42.249-27.399-78.568-69.454-81.12-42.055-2.552-79.144 29.63-82.841 71.879a78.374 78.374 0 0 0-.296 6.112c-.029 3.233 2.781 5.595 5.998 5.285l3.613-.347c3.212-.309 5.61-3.165 5.699-6.393.034-1.237.106-2.482.215-3.733 2.958-33.799 32.629-59.544 66.273-57.503 33.644 2.042 58.521 31.097 55.563 64.896-2.957 33.802-32.629 59.542-66.273 57.502a56.137 56.137 0 0 1-3.699-.34c-3.184-.38-6.344 1.58-7.122 4.74l-.874 3.54Z" fill="#FC91AD"/>
</svg>