<svg xmlns="http://www.w3.org/2000/svg" fill="none" viewBox="0 0 1440 898">
  <path fill="#4DBBEE" d="m120.901 284.443 14.059-92.959-52.47 34.44 38.411 58.519ZM337.875 420.969l-111.913 69.274 84.306 24.753 27.607-94.027Z"/>
  <rect width="46.468" height="762.11" x="-299" y="226.761" fill="#A052DE" rx="13.504" transform="rotate(-47.833 -299 226.761)"/>
  <path fill="#4DBBEE" d="M-149.944 482.626c-7.246-.567-13.63 4.857-13.634 12.125-.003 4.544.173 9.123.533 13.731 7.423 94.851 90.332 165.727 185.183 158.305 94.852-7.422 165.727-90.331 158.305-185.183-7.422-94.851-90.33-165.727-185.182-158.305-4.608.361-9.159.899-13.647 1.609-7.179 1.135-11.543 8.284-9.856 15.353l1.895 7.939c1.684 7.057 8.764 11.351 15.95 10.353 2.755-.383 5.537-.685 8.345-.905 75.882-5.938 142.209 50.763 148.147 126.644 5.937 75.881-50.763 142.209-126.644 148.146-75.882 5.938-142.209-50.763-148.147-126.644a141.157 141.157 0 0 1-.404-8.384c-.131-7.255-5.474-13.581-12.708-14.147l-8.136-.637Z"/>
  <path fill="#A052DE" d="m1235.89 198.124 247.126 149.13-30.947 51.282-247.126-149.13zM1285.06 560.644l-9.8 163.585 86.69-76.893-76.89-86.692Z"/>
  <circle cx="1427.08" cy="514.818" r="90.029" fill="#4DBBEE" transform="rotate(-13.557 1427.08 514.818)"/>
  <path fill="#FC91AD" d="m1288.69 517.794-24.791-35.446-35.446 24.791 24.791 35.446z"/>
  <path fill="#4DBBEE" d="M1119.9 679.331c-2.55-.316-4.89 1.493-5 4.056a60.208 60.208 0 0 0-.04 4.849c1.1 33.558 29.19 59.874 62.75 58.777 33.56-1.096 59.88-29.189 58.78-62.747-1.1-33.558-29.19-59.874-62.75-58.778-1.63.054-3.24.171-4.84.349-2.54.285-4.2 2.735-3.72 5.255l.54 2.829c.49 2.515 2.91 4.142 5.46 3.905.98-.091 1.96-.153 2.96-.185 26.85-.877 49.32 20.175 50.2 47.022.87 26.847-20.18 49.321-47.03 50.198-26.84.877-49.32-20.176-50.19-47.022a41.82 41.82 0 0 1-.01-2.962c.07-2.56-1.71-4.876-4.25-5.191l-2.86-.355Z"/>
  <rect width="1640" height="929" x="-100" y="20" stroke="#000F46" stroke-width="200" rx="464.5"/>
</svg>
