<svg width="625" height="882" fill="none" xmlns="http://www.w3.org/2000/svg"><path fill="#FC91AD" d="m310.052 335.993 283.986 257.138-31.114 34.362L278.94 370.355z"/><path d="m162.964 225.32-8.607-71.683-31.793 36.224 40.4 35.459Z" fill="#20AAEA"/><path d="M520.749 388.236 420.64 402.161l51.535 43.552 48.574-57.477Z" fill="#A052DE"/><circle cx="144.564" cy="570.401" r="33.379" transform="rotate(-32.095 144.564 570.401)" fill="#FC91AD"/><circle cx="556.864" cy="687.865" r="13.495" transform="rotate(-32.095 556.864 687.865)" fill="#20AAEA"/><circle cx="594.976" cy="695.636" r="13.495" transform="rotate(-32.095 594.976 695.636)" fill="#A052DE"/><ellipse cx="42.884" cy="130.764" rx="18.148" ry="18.472" transform="rotate(-32.095 42.884 130.764)" fill="#FC91AD"/><rect x="-193.254" y="241.383" width="35.684" height="585.245" rx="16" transform="rotate(-63.28 -193.254 241.383)" fill="#A052DE"/><path d="M-30.4 400.591c-5.484 1.056-9.094 6.385-7.599 11.784a135.1 135.1 0 0 0 3.226 10.091c25.052 68.941 101.072 104.693 169.796 79.853 68.724-24.839 104.127-100.864 79.076-169.805-25.052-68.942-101.072-104.694-169.796-79.854a133.976 133.976 0 0 0-9.776 3.975c-5.084 2.306-6.842 8.506-4.135 13.413l3.04 5.511c2.702 4.898 8.832 6.645 13.949 4.439 1.96-.845 3.959-1.637 5.994-2.372 54.979-19.872 115.795 8.73 135.836 63.883 20.042 55.153-8.281 115.973-63.26 135.844-54.98 19.872-115.796-8.729-135.837-63.883a108.089 108.089 0 0 1-2.028-6.145c-1.593-5.362-6.854-8.972-12.329-7.918l-6.157 1.184ZM301.717 602.854l-26.064-18.173 18.172-26.064 26.065 18.173z" fill="#20AAEA"/><path fill="#A052DE" d="m330.977 624.088-26.064-18.173 18.172-26.064 26.065 18.173z"/><path fill="#20AAEA" d="m339.003 674.583-26.064-18.173 18.172-26.064 26.065 18.173z"/><path fill="#FC91AD" d="m309.742 653.349-26.064-18.173 18.172-26.064 26.065 18.173z"/></svg>