<svg width="625" height="882" viewBox="0 0 625 882" fill="none" xmlns="http://www.w3.org/2000/svg">
<rect x="310.052" y="335.993" width="383.103" height="46.355" transform="rotate(42.1596 310.052 335.993)" fill="#FC91AD"/>
<path d="M162.964 225.319L154.357 153.637L122.564 189.86L162.964 225.319Z" fill="#20AAEA"/>
<path d="M520.749 388.236L420.64 402.161L472.175 445.713L520.749 388.236Z" fill="#A052DE"/>
<circle cx="144.564" cy="570.401" r="33.3789" transform="rotate(-32.095 144.564 570.401)" fill="#FC91AD"/>
<circle cx="556.863" cy="687.865" r="13.4953" transform="rotate(-32.095 556.863 687.865)" fill="#20AAEA"/>
<circle cx="594.976" cy="695.636" r="13.4953" transform="rotate(-32.095 594.976 695.636)" fill="#A052DE"/>
<ellipse cx="42.8842" cy="130.763" rx="18.1478" ry="18.4718" transform="rotate(-32.095 42.8842 130.763)" fill="#FC91AD"/>
<rect x="-193.255" y="241.383" width="35.6838" height="585.245" rx="16" transform="rotate(-63.2797 -193.255 241.383)" fill="#A052DE"/>
<path d="M-30.4003 400.591C-35.8842 401.647 -39.4941 406.976 -37.9989 412.375C-37.0642 415.751 -35.9899 419.117 -34.773 422.466C-9.72136 491.407 66.2988 527.159 135.023 502.319C203.747 477.48 239.15 401.455 214.099 332.514C189.047 263.572 113.027 227.82 44.3028 252.66C40.9645 253.867 37.7049 255.194 34.5269 256.635C29.4436 258.941 27.6847 265.141 30.3919 270.048L33.4318 275.559C36.1343 280.457 42.2637 282.204 47.3806 279.998C49.3414 279.153 51.3398 278.361 53.3748 277.626C108.354 257.754 169.17 286.356 189.211 341.509C209.253 396.662 180.93 457.482 125.951 477.353C70.9716 497.225 10.1555 468.624 -9.88584 413.47C-10.6277 411.429 -11.3032 409.38 -11.9136 407.325C-13.5065 401.963 -18.7683 398.353 -24.2425 399.407L-30.4003 400.591Z" fill="#20AAEA"/>
<rect x="301.717" y="602.854" width="31.7736" height="31.7736" transform="rotate(-145.115 301.717 602.854)" fill="#20AAEA"/>
<rect x="330.977" y="624.089" width="31.7736" height="31.7736" transform="rotate(-145.115 330.977 624.089)" fill="#A052DE"/>
<rect x="339.003" y="674.584" width="31.7736" height="31.7736" transform="rotate(-145.115 339.003 674.584)" fill="#20AAEA"/>
<rect x="309.742" y="653.349" width="31.7736" height="31.7736" transform="rotate(-145.115 309.742 653.349)" fill="#FC91AD"/>
</svg>
