<svg width="426" height="1029" fill="none" xmlns="http://www.w3.org/2000/svg"><g style="mix-blend-mode:overlay"><path fill="#8D8D8D" d="m418.461 104.565 101.238 101.238-104.561 104.561L313.9 209.126z"/><path fill="#B4ABBB" d="m519.7 205.8 101.238 101.238-104.561 104.561-101.238-101.238z"/><path fill="#C4C4C4" d="m313.9 209.125 101.238 101.238-104.561 104.561-101.238-101.238z"/><path fill="#848484" d="m415.139 310.363 101.238 101.238-104.561 104.561-101.238-101.238z"/><path fill="#E2E2E2" d="m516.376 411.599 101.238 101.238-104.561 104.561L411.815 516.16zM209.338 313.687l101.238 101.238-104.561 104.561-101.238-101.238z"/><path fill="#B4ABBB" d="m310.576 414.924 101.238 101.238-104.561 104.561-101.238-101.238z"/><path fill="#848484" d="M411.815 516.162 513.053 617.4 408.492 721.96 307.254 620.723z"/><path fill="#C4C4C4" d="m513.053 617.399 101.238 101.238L509.73 823.198 408.492 721.96z"/><path fill="#8D8D8D" d="m206.016 519.484 101.238 101.238-104.561 104.561-101.238-101.238z"/><path fill="#B4ABBB" d="m307.253 620.724 101.238 101.238L303.93 826.523 202.692 725.285z"/><path fill="#E2E2E2" d="m408.491 721.961 101.238 101.238L405.168 927.76 303.93 826.522z"/></g></svg>