<svg xmlns="http://www.w3.org/2000/svg" fill="none" viewBox="0 0 98 122">
  <path stroke="#fff" stroke-linecap="round" stroke-width="8" d="M48.804 93.609A44.804 44.804 0 1 0 4 48.599"/>
  <path stroke="#fff" stroke-linecap="round" stroke-width="8" d="M48.804 15.661v33.335c0 1.264 1.38 2.044 2.464 1.392l19.631-11.835"/>
  <path fill="#fff" d="M22.057 108.676c-.923 0-1.679-.313-2.266-.941-.588-.586-.882-1.318-.882-2.196v-4.267c-2.56-.168-4.848-.565-6.862-1.193-1.973-.669-3.673-1.401-5.1-2.196-.965-.544-1.574-1.276-1.826-2.196-.21-.92-.147-1.8.189-2.636.336-.836.902-1.422 1.7-1.757.797-.334 1.742-.188 2.833.44 1.175.669 2.707 1.317 4.596 1.945 1.93.585 4.24.878 6.925.878 3.148 0 5.415-.544 6.8-1.631 1.385-1.13 2.078-2.531 2.078-4.205 0-1.38-.483-2.51-1.448-3.388-.966-.879-2.687-1.59-5.163-2.134l-6.674-1.443C9.36 80.124 5.562 76.15 5.562 69.833c0-3.514 1.196-6.463 3.588-8.847 2.435-2.427 5.688-3.891 9.76-4.393v-4.455c0-.879.293-1.611.88-2.197.588-.627 1.344-.941 2.267-.941.881 0 1.616.314 2.204.941.63.586.944 1.318.944 2.197v4.392c1.679.167 3.442.565 5.289 1.192 1.888.628 3.525 1.486 4.91 2.573.798.628 1.26 1.36 1.385 2.197a3.304 3.304 0 0 1-.44 2.259c-.378.669-.987 1.129-1.826 1.38-.798.21-1.742 0-2.833-.627-1.218-.712-2.582-1.276-4.093-1.695-1.51-.46-3.316-.69-5.414-.69-2.686 0-4.806.607-6.359 1.82-1.51 1.171-2.266 2.719-2.266 4.643 0 1.423.461 2.573 1.385 3.452.923.836 2.497 1.506 4.722 2.008l6.862 1.506c4.03.878 6.989 2.28 8.877 4.204 1.889 1.883 2.833 4.372 2.833 7.467 0 3.515-1.217 6.401-3.651 8.66-2.393 2.217-5.52 3.619-9.381 4.204v4.456c0 .878-.294 1.61-.881 2.196-.588.628-1.344.941-2.267.941Z"/>
  <path stroke="#fff" stroke-linecap="round" stroke-linejoin="round" stroke-width="6" d="m13.645 109.676 8.5 8.5 9-8.5"/>
  <path stroke="#fff" stroke-linecap="round" stroke-linejoin="round" stroke-width="6.75" d="M22 58.5V49"/>
</svg>
