<svg xmlns="http://www.w3.org/2000/svg" fill="none" viewBox="0 0 60 60">
  <circle cx="30" cy="30" r="29" stroke="#FBFAFF" stroke-width="2"/>
  <path fill="#FBFAFF" d="M26.411 41.797h7.276v7.056H26.41v-7.056ZM17.5 24.219c.195-4.639 1.815-7.927 4.858-9.864 1.921-1.237 4.281-1.855 7.08-1.855 3.679 0 6.73.879 9.156 2.637 2.441 1.758 3.662 4.362 3.662 7.812 0 2.116-.53 3.898-1.587 5.347-.618.879-1.807 2.002-3.564 3.369l-1.734 1.343c-.944.732-1.57 1.587-1.88 2.563-.195.619-.3 1.58-.317 2.881h-6.592c.098-2.75.358-4.647.781-5.688.424-1.058 1.514-2.27 3.272-3.638l1.782-1.392a6.228 6.228 0 0 0 1.416-1.44c.651-.895.977-1.88.977-2.954 0-1.237-.367-2.36-1.1-3.37-.715-1.025-2.034-1.537-3.954-1.537-1.888 0-3.23.626-4.029 1.88-.78 1.253-1.171 2.555-1.171 3.906H17.5Z"/>
</svg>
